<svg width="57" height="44" viewBox="0 0 57 44" fill="none" xmlns="http://www.w3.org/2000/svg">
<path d="M24.6156 0.699997C16.9656 6.54999 10.6656 16 8.71563 23.95C9.76563 23.5 10.8156 23.35 12.1656 23.35C18.3156 23.35 22.8156 27.55 22.8156 33.4C22.8156 39.1 18.1656 43.3 11.5656 43.3C4.81563 43.3 0.465625 38.2 0.465625 30.55C0.465625 19.9 4.36563 8.04999 10.2156 0.699997H24.6156ZM43.8156 23.35C49.9656 23.35 54.4656 27.55 54.4656 33.4C54.4656 39.1 49.6656 43.3 43.2156 43.3C36.4656 43.3 31.9656 38.2 31.9656 30.55C31.9656 19.9 35.8656 8.04999 41.8656 0.699997H56.1156C48.4656 6.54999 42.3156 16 40.2156 23.95C41.2656 23.5 42.4656 23.35 43.8156 23.35Z" fill="#304160"/>
</svg>
